<svg xmlns="http://www.w3.org/2000/svg" width="337" height="120" viewBox="0 0 337 120"><path d="M116.89 67.49l-3.81-5.17 3.81-5.17a7.65 7.65 0 0 0-6.32-12.21 8 8 0 0 0-6.46 3.3l-1.8 2.59a7.52 7.52 0 0 0-7.54-6 7.75 7.75 0 0 0-7.83 7.68v19.65A7.79 7.79 0 0 0 94.71 80h.06a7.3 7.3 0 0 0 7.47-5.67l1.65 2.3a8 8 0 0 0 14.51-4.53 7.64 7.64 0 0 0-1.51-4.61zm26.94-6.68l-2.16-1.94c3.16-.5 5.25-2.58 5.25-5.67 0-5.25-4.17-8.33-12.93-8.33s-13.65 4.31-13.65 11.2c0 3.52 1.79 5.89 4.45 8.33l2.09 1.94h-.08c-4 0-6.68 2.3-6.68 5.89 0 5.18 4.31 8.34 13.58 8.34s14.51-4.39 14.51-11.42c0-3.52-1.72-5.97-4.38-8.34zm-59.91-6.32c0-5.6-4.74-9.62-12.28-9.62-10.13 0-17.53 7.47-17.53 17.52a17.07 17.07 0 0 0 17.53 17.53c7.54.07 12.28-4 12.28-9.63 0-3.73-1.87-6.32-5.6-7.9 3.73-1.58 5.6-4.09 5.6-7.9zM179.17 53a7.49 7.49 0 0 0-7.45-7.54h-16a7.55 7.55 0 0 0-.43 15.09v12.04a8.39 8.39 0 0 0 16.74.07V60.53a7.47 7.47 0 0 0 7.14-7.53zM42.71 44.87a8.48 8.48 0 0 0-8.48 8.4v18.32a8.48 8.48 0 0 0 16.95 0V53.27a8.42 8.42 0 0 0-8.47-8.4zM26.67 62.32l3.74-5.17A7.73 7.73 0 0 0 24 44.94a8.12 8.12 0 0 0-6.46 3.3l-1.87 2.59a7.52 7.52 0 0 0-7.54-6 7.79 7.79 0 0 0-7.82 7.81v19.52A7.79 7.79 0 0 0 8.08 80h.06a7.4 7.4 0 0 0 7.47-5.67l1.65 2.3A8 8 0 0 0 23.8 80a8 8 0 0 0 6.68-12.5zm308.66 6.47l-3.09-4.89a9.42 9.42 0 0 0 3.6-7.68 10.71 10.71 0 0 0-11-10.71h-10.2c-5.53-.07-8.54 3-8.54 8.69v18.39a8 8 0 0 0 7.83 8 7.53 7.53 0 0 0 7.32-5.25l.79 1.44a8 8 0 0 0 6.76 3.81 7.6 7.6 0 0 0 7.68-7.52V73a7.9 7.9 0 0 0-1.15-4.21zM201.58 51.26c-1.79-4.1-4.38-6.39-8.91-6.39s-7.11 2.29-8.9 6.39L176.58 68c-2.73 6.32 1.73 12 7.83 12 3.38 0 6.18-2 8.19-6.1 2 4.09 4.81 6.1 8.26 6.1 6.25 0 10.63-5.6 7.9-12zm102.15 1a6.69 6.69 0 0 0-6.62-6.75h-12.28c-5.6 0-8.62 3-8.62 8.69v17.6c0 5.75 3 8.69 8.62 8.69h12.22a6.53 6.53 0 0 0 6.68-6.38v-.3a6.34 6.34 0 0 0-5.1-6.46 5.4 5.4 0 0 0 0-8.62 6.28 6.28 0 0 0 5.1-6.47zm-37.26-6.82h-16a7.55 7.55 0 0 0-.43 15.09v12.06a8.38 8.38 0 0 0 16.73.07V60.53a7.55 7.55 0 0 0-.33-15.09zm-28.4 18.46a9.41 9.41 0 0 0 3.59-7.68 10.71 10.71 0 0 0-11-10.71h-10.2c-5.46-.07-8.54 3-8.54 8.69v18.39a8 8 0 0 0 7.82 8 7.55 7.55 0 0 0 7.33-5.25l.79 1.44a7.94 7.94 0 0 0 6.75 3.81 7.61 7.61 0 0 0 7.69-7.52V73a7.9 7.9 0 0 0-1.15-4.16z" fill="#6b7c93"/></svg>