<svg xmlns="http://www.w3.org/2000/svg" width="1600" height="200"><g fill="none" fill-rule="evenodd"><path fill="#FC7D9A" d="M1340 0h260v200h-260z"/><path fill="#FED44D" d="M1073 0h269.521c11.187 43.386 18.09 78.152 20.706 104.298 2.617 26.146 4.27 58.046 4.959 95.702H1073V0z"/><path fill="#71D4EC" d="M858 0h269.521c4.98 28.708 7.47 60.632 7.47 95.77s-3.602 69.881-10.805 104.23H858V0z"/><path fill="#FC7D9A" d="M675 0h269.521c1.648 43.886-.877 81.122-7.574 111.71-6.698 30.587-15.495 60.017-26.393 88.29H675V0z"/><path fill="#FED44D" d="M460 0h315.521c-10.385 46.334-22.18 84.182-35.388 113.544-13.206 29.362-31.512 58.181-54.916 86.456H460V0z"/><path fill="#71D4EC" d="M0 0h625.521c-18.4 44.368-39.729 82.108-63.986 113.221-24.256 31.113-55.737 60.04-94.44 86.779H0V0z"/><path fill="#FC7D9A" d="M0 0h457.905C395.11 82.883 310.408 127.035 203.8 132.454 141.898 135.601 73.965 116.07 0 73.856V0z"/></g></svg>